<?xml version="1.0" standalone="no"?>
<!DOCTYPE svg PUBLIC "-//W3C//DTD SVG 20010904//EN"
 "http://www.w3.org/TR/2001/REC-SVG-20010904/DTD/svg10.dtd">
<svg version="1.0" xmlns="http://www.w3.org/2000/svg"
 width="16.000000pt" height="16.000000pt" viewBox="0 0 16.000000 16.000000"
 preserveAspectRatio="xMidYMid meet">
<metadata>
Created by potrace 1.11, written by Peter Selinger 2001-2013
</metadata>
<g transform="translate(0.000000,16.000000) scale(0.006154,-0.006154)"
fill="#000000" stroke="none">
<path d="M25 2575 l-25 -24 0 -1251 0 -1251 25 -24 24 -25 1251 0 1251 0 24
25 25 24 0 1251 0 1251 -25 24 -24 25 -1251 0 -1251 0 -24 -25z m1067 -404
l33 -29 3 -486 c1 -267 6 -486 10 -486 4 0 42 12 85 26 133 44 146 63 203 284
35 138 45 157 92 169 51 15 152 13 182 -2 39 -19 36 -56 -20 -257 -57 -206
-95 -288 -151 -328 -21 -15 -39 -30 -39 -33 0 -3 63 -127 140 -275 77 -148
140 -279 140 -291 0 -13 -9 -32 -21 -44 -19 -19 -30 -20 -120 -17 -98 3 -99 3
-133 38 -23 23 -71 111 -142 260 -59 124 -110 228 -113 231 -3 4 -30 -2 -58
-13 l-53 -21 0 -204 c0 -285 -4 -293 -166 -293 -81 0 -87 2 -115 29 l-29 29 0
834 c1 672 3 838 14 857 21 39 54 50 143 51 77 0 85 -2 115 -29z"/>
</g>
</svg>
